<mxfile host="Electron" modified="2024-03-14T09:35:23.130Z" agent="Mozilla/5.0 (Windows NT 10.0; Win64; x64) AppleWebKit/537.36 (KHTML, like Gecko) draw.io/23.1.5 Chrome/120.0.6099.109 Electron/28.1.0 Safari/537.36" etag="Atg1GVpRvLWl_y68ePvS" version="23.1.5" type="device">
  <diagram name="Albergo" id="auqcSkG2RdUyr-4I1fST">
    <mxGraphModel dx="2117" dy="629" grid="1" gridSize="10" guides="1" tooltips="1" connect="1" arrows="1" fold="1" page="1" pageScale="1" pageWidth="827" pageHeight="1169" math="0" shadow="0">
      <root>
        <mxCell id="0" />
        <mxCell id="1" parent="0" />
        <mxCell id="b9ujsR0PrLd3KGUeFNNG-1" value="&lt;div style=&quot;font-size: 17px;&quot;&gt;&lt;font style=&quot;font-size: 17px;&quot;&gt;Progetazione e realizzazione:&lt;/font&gt;&lt;/div&gt;&lt;div style=&quot;font-size: 17px;&quot;&gt;&lt;font style=&quot;font-size: 17px;&quot;&gt;Progetazione Sistema di Gestione AlberghiLa catena alberghiera &quot;Sogni D&#39;oro&quot; necessita di un sistema di gestione delle prenotazioni per gestire le sue diverse struture sparse in tuto il paese. Ogni &lt;span style=&quot;background-color: rgb(255, 255, 153);&quot;&gt;albergo &lt;/span&gt;si distingue per &lt;span style=&quot;background-color: rgb(102, 255, 255);&quot;&gt;nome&lt;/span&gt;, &lt;span style=&quot;background-color: rgb(102, 255, 255);&quot;&gt;indirizzo&lt;/span&gt;, e &lt;span style=&quot;background-color: rgb(102, 255, 255);&quot;&gt;valutazione (espressa in stelle)&lt;/span&gt;. All&#39;interno di ogni albergo, vi sono diverse &lt;span style=&quot;background-color: rgb(255, 255, 153);&quot;&gt;camere&lt;/span&gt;, &lt;u&gt;ognuna caraterizzata da un numero unico per albergo, un tipo (singola, doppia, suite, ecc.), una capacità massima di ospiti e una tariffa per notte&lt;/u&gt;.&lt;/font&gt;&lt;/div&gt;&lt;div style=&quot;font-size: 17px;&quot;&gt;&lt;font style=&quot;font-size: 17px;&quot;&gt;I clienti possono prenotare camere scegliendo specifiche date di check-in e check-out. &lt;u&gt;Ogni prenotazione riguarda una sola camera&lt;/u&gt; in un determinato periodo, e il sistema deve tenere traccia dell&#39;identità del &lt;span style=&quot;background-color: rgb(255, 255, 153);&quot;&gt;cliente&lt;/span&gt;, che include dettagli come &lt;span style=&quot;background-color: rgb(102, 255, 255);&quot;&gt;nome, cognome, e contatto&lt;/span&gt;. &lt;u&gt;Si noti che un cliente può effettuare più prenotazioni nel tempo, ma una camera può essere prenotata solo da un cliente alla volta per qualsiasi data.&lt;/u&gt;&lt;/font&gt;&lt;/div&gt;&lt;div style=&quot;font-size: 17px;&quot;&gt;&lt;font style=&quot;font-size: 17px;&quot;&gt;Inoltre, l&#39;albergo impiega diversi &lt;span style=&quot;background-color: rgb(255, 255, 153);&quot;&gt;dipendenti&lt;/span&gt;, &lt;u&gt;inclusi receptionist, personale di pulizia e manager&lt;/u&gt;. &lt;u&gt;Ogni dipendente è associato a un unico albergo e ha un ruolo specifico nell&#39;organizzazione&lt;/u&gt;. È importante tracciare anche i dettagli del &lt;span style=&quot;background-color: rgb(102, 255, 255);&quot;&gt;dipendente, inclusi nome, cognome, posizione, e dettagli del contatto&lt;/span&gt;.&lt;/font&gt;&lt;/div&gt;&lt;div style=&quot;font-size: 17px;&quot;&gt;&lt;font style=&quot;font-size: 17px;&quot;&gt;Il sistema dovrebbe anche consentire la gestione delle &lt;span style=&quot;background-color: rgb(255, 255, 153);&quot;&gt;facilities&lt;/span&gt; offerte da ogni albergo, come palestre, piscine o spa. &lt;span style=&quot;background-color: rgb(102, 255, 255);&quot;&gt;Ogni facility è caraterizzata da un nome, una descrizione e un insieme di orari di apertura&lt;/span&gt;.&lt;/font&gt;&lt;/div&gt;&lt;div style=&quot;font-size: 17px;&quot;&gt;&lt;font style=&quot;font-size: 17px;&quot;&gt;Si richiede di progetare uno schema ER per questo sistema, identificando chiaramente entità, atributi, e relazioni.&lt;/font&gt;&lt;/div&gt;&lt;font style=&quot;font-size: 17px;&quot;&gt;&lt;span dir=&quot;ltr&quot; class=&quot;ui-provider a b c d e f g h i j k l m n o p q r s t u v w x y z ab ac ae af ag ah ai aj ak&quot;&gt;&lt;/span&gt;&lt;/font&gt;" style="text;html=1;align=center;verticalAlign=middle;whiteSpace=wrap;rounded=0;" parent="1" vertex="1">
          <mxGeometry x="30" y="10" width="770" height="380" as="geometry" />
        </mxCell>
        <mxCell id="b9ujsR0PrLd3KGUeFNNG-13" style="edgeStyle=orthogonalEdgeStyle;rounded=0;orthogonalLoop=1;jettySize=auto;html=1;exitX=0.5;exitY=1;exitDx=0;exitDy=0;entryX=0;entryY=0.5;entryDx=0;entryDy=0;" parent="1" source="b9ujsR0PrLd3KGUeFNNG-2" target="b9ujsR0PrLd3KGUeFNNG-7" edge="1">
          <mxGeometry relative="1" as="geometry">
            <Array as="points">
              <mxPoint x="130" y="1080" />
              <mxPoint x="130" y="1115" />
            </Array>
          </mxGeometry>
        </mxCell>
        <mxCell id="b9ujsR0PrLd3KGUeFNNG-14" style="edgeStyle=orthogonalEdgeStyle;rounded=0;orthogonalLoop=1;jettySize=auto;html=1;exitX=0.5;exitY=1;exitDx=0;exitDy=0;entryX=0;entryY=0.5;entryDx=0;entryDy=0;" parent="1" source="b9ujsR0PrLd3KGUeFNNG-2" target="b9ujsR0PrLd3KGUeFNNG-9" edge="1">
          <mxGeometry relative="1" as="geometry">
            <Array as="points">
              <mxPoint x="130" y="1080" />
              <mxPoint x="130" y="1152" />
            </Array>
          </mxGeometry>
        </mxCell>
        <mxCell id="b9ujsR0PrLd3KGUeFNNG-15" style="edgeStyle=orthogonalEdgeStyle;rounded=0;orthogonalLoop=1;jettySize=auto;html=1;exitX=0.5;exitY=1;exitDx=0;exitDy=0;entryX=0;entryY=0.5;entryDx=0;entryDy=0;" parent="1" source="b9ujsR0PrLd3KGUeFNNG-2" target="b9ujsR0PrLd3KGUeFNNG-11" edge="1">
          <mxGeometry relative="1" as="geometry">
            <Array as="points">
              <mxPoint x="130" y="1080" />
              <mxPoint x="130" y="1190" />
            </Array>
          </mxGeometry>
        </mxCell>
        <mxCell id="b9ujsR0PrLd3KGUeFNNG-91" style="edgeStyle=orthogonalEdgeStyle;rounded=0;orthogonalLoop=1;jettySize=auto;html=1;exitX=0.5;exitY=1;exitDx=0;exitDy=0;entryX=0.5;entryY=0;entryDx=0;entryDy=0;endArrow=doubleBlock;endFill=1;" parent="1" source="b9ujsR0PrLd3KGUeFNNG-2" target="b9ujsR0PrLd3KGUeFNNG-89" edge="1">
          <mxGeometry relative="1" as="geometry" />
        </mxCell>
        <mxCell id="b9ujsR0PrLd3KGUeFNNG-93" style="edgeStyle=orthogonalEdgeStyle;rounded=0;orthogonalLoop=1;jettySize=auto;html=1;exitX=0;exitY=0.5;exitDx=0;exitDy=0;entryX=1;entryY=0.5;entryDx=0;entryDy=0;endArrow=doubleBlock;endFill=1;" parent="1" source="b9ujsR0PrLd3KGUeFNNG-2" target="b9ujsR0PrLd3KGUeFNNG-92" edge="1">
          <mxGeometry relative="1" as="geometry" />
        </mxCell>
        <mxCell id="b9ujsR0PrLd3KGUeFNNG-96" style="edgeStyle=orthogonalEdgeStyle;rounded=0;orthogonalLoop=1;jettySize=auto;html=1;exitX=1;exitY=0.5;exitDx=0;exitDy=0;entryX=0;entryY=0.5;entryDx=0;entryDy=0;endArrow=doubleBlock;endFill=1;" parent="1" source="b9ujsR0PrLd3KGUeFNNG-2" target="b9ujsR0PrLd3KGUeFNNG-80" edge="1">
          <mxGeometry relative="1" as="geometry" />
        </mxCell>
        <mxCell id="b9ujsR0PrLd3KGUeFNNG-2" value="Albergo" style="rounded=0;whiteSpace=wrap;html=1;" parent="1" vertex="1">
          <mxGeometry x="30" y="1020" width="120" height="60" as="geometry" />
        </mxCell>
        <mxCell id="b9ujsR0PrLd3KGUeFNNG-24" style="edgeStyle=orthogonalEdgeStyle;rounded=0;orthogonalLoop=1;jettySize=auto;html=1;exitX=0.5;exitY=1;exitDx=0;exitDy=0;entryX=0;entryY=0.5;entryDx=0;entryDy=0;" parent="1" source="b9ujsR0PrLd3KGUeFNNG-3" target="b9ujsR0PrLd3KGUeFNNG-16" edge="1">
          <mxGeometry relative="1" as="geometry">
            <Array as="points">
              <mxPoint x="510" y="1080" />
              <mxPoint x="510" y="1114" />
            </Array>
          </mxGeometry>
        </mxCell>
        <mxCell id="b9ujsR0PrLd3KGUeFNNG-25" style="edgeStyle=orthogonalEdgeStyle;rounded=0;orthogonalLoop=1;jettySize=auto;html=1;exitX=0.5;exitY=1;exitDx=0;exitDy=0;entryX=0;entryY=0.5;entryDx=0;entryDy=0;" parent="1" source="b9ujsR0PrLd3KGUeFNNG-3" target="b9ujsR0PrLd3KGUeFNNG-18" edge="1">
          <mxGeometry relative="1" as="geometry">
            <Array as="points">
              <mxPoint x="510" y="1080" />
              <mxPoint x="510" y="1152" />
            </Array>
          </mxGeometry>
        </mxCell>
        <mxCell id="b9ujsR0PrLd3KGUeFNNG-26" style="edgeStyle=orthogonalEdgeStyle;rounded=0;orthogonalLoop=1;jettySize=auto;html=1;exitX=0.5;exitY=1;exitDx=0;exitDy=0;entryX=0;entryY=0.5;entryDx=0;entryDy=0;" parent="1" source="b9ujsR0PrLd3KGUeFNNG-3" target="b9ujsR0PrLd3KGUeFNNG-20" edge="1">
          <mxGeometry relative="1" as="geometry">
            <Array as="points">
              <mxPoint x="510" y="1080" />
              <mxPoint x="510" y="1190" />
            </Array>
          </mxGeometry>
        </mxCell>
        <mxCell id="b9ujsR0PrLd3KGUeFNNG-27" style="edgeStyle=orthogonalEdgeStyle;rounded=0;orthogonalLoop=1;jettySize=auto;html=1;exitX=0.5;exitY=1;exitDx=0;exitDy=0;entryX=0;entryY=0.5;entryDx=0;entryDy=0;" parent="1" source="b9ujsR0PrLd3KGUeFNNG-3" target="b9ujsR0PrLd3KGUeFNNG-22" edge="1">
          <mxGeometry relative="1" as="geometry">
            <Array as="points">
              <mxPoint x="510" y="1080" />
              <mxPoint x="510" y="1225" />
            </Array>
          </mxGeometry>
        </mxCell>
        <mxCell id="b9ujsR0PrLd3KGUeFNNG-104" style="edgeStyle=orthogonalEdgeStyle;rounded=0;orthogonalLoop=1;jettySize=auto;html=1;exitX=0;exitY=0.5;exitDx=0;exitDy=0;entryX=1;entryY=0.5;entryDx=0;entryDy=0;endArrow=classic;endFill=1;" parent="1" source="b9ujsR0PrLd3KGUeFNNG-3" target="b9ujsR0PrLd3KGUeFNNG-80" edge="1">
          <mxGeometry relative="1" as="geometry" />
        </mxCell>
        <mxCell id="b9ujsR0PrLd3KGUeFNNG-105" style="edgeStyle=orthogonalEdgeStyle;rounded=0;orthogonalLoop=1;jettySize=auto;html=1;exitX=0.5;exitY=1;exitDx=0;exitDy=0;entryX=0.5;entryY=0;entryDx=0;entryDy=0;endArrow=doubleBlock;endFill=1;" parent="1" source="b9ujsR0PrLd3KGUeFNNG-3" target="b9ujsR0PrLd3KGUeFNNG-82" edge="1">
          <mxGeometry relative="1" as="geometry" />
        </mxCell>
        <mxCell id="b9ujsR0PrLd3KGUeFNNG-3" value="Camera" style="rounded=0;whiteSpace=wrap;html=1;" parent="1" vertex="1">
          <mxGeometry x="430" y="1020" width="120" height="60" as="geometry" />
        </mxCell>
        <mxCell id="b9ujsR0PrLd3KGUeFNNG-52" style="edgeStyle=orthogonalEdgeStyle;rounded=0;orthogonalLoop=1;jettySize=auto;html=1;exitX=0.5;exitY=1;exitDx=0;exitDy=0;entryX=0;entryY=0.5;entryDx=0;entryDy=0;" parent="1" source="b9ujsR0PrLd3KGUeFNNG-4" target="b9ujsR0PrLd3KGUeFNNG-45" edge="1">
          <mxGeometry relative="1" as="geometry" />
        </mxCell>
        <mxCell id="b9ujsR0PrLd3KGUeFNNG-53" style="edgeStyle=orthogonalEdgeStyle;rounded=0;orthogonalLoop=1;jettySize=auto;html=1;exitX=0.5;exitY=1;exitDx=0;exitDy=0;entryX=0;entryY=0.5;entryDx=0;entryDy=0;" parent="1" source="b9ujsR0PrLd3KGUeFNNG-4" target="b9ujsR0PrLd3KGUeFNNG-47" edge="1">
          <mxGeometry relative="1" as="geometry" />
        </mxCell>
        <mxCell id="b9ujsR0PrLd3KGUeFNNG-54" style="edgeStyle=orthogonalEdgeStyle;rounded=0;orthogonalLoop=1;jettySize=auto;html=1;exitX=0.5;exitY=1;exitDx=0;exitDy=0;entryX=0;entryY=0.5;entryDx=0;entryDy=0;" parent="1" source="b9ujsR0PrLd3KGUeFNNG-4" target="b9ujsR0PrLd3KGUeFNNG-50" edge="1">
          <mxGeometry relative="1" as="geometry" />
        </mxCell>
        <mxCell id="b9ujsR0PrLd3KGUeFNNG-85" style="edgeStyle=orthogonalEdgeStyle;rounded=0;orthogonalLoop=1;jettySize=auto;html=1;exitX=0;exitY=0.5;exitDx=0;exitDy=0;entryX=1;entryY=0.5;entryDx=0;entryDy=0;endArrow=doubleBlock;endFill=1;" parent="1" source="b9ujsR0PrLd3KGUeFNNG-4" target="b9ujsR0PrLd3KGUeFNNG-81" edge="1">
          <mxGeometry relative="1" as="geometry" />
        </mxCell>
        <mxCell id="b9ujsR0PrLd3KGUeFNNG-116" style="edgeStyle=orthogonalEdgeStyle;rounded=0;orthogonalLoop=1;jettySize=auto;html=1;exitX=0.5;exitY=1;exitDx=0;exitDy=0;entryX=0;entryY=0.5;entryDx=0;entryDy=0;" parent="1" source="b9ujsR0PrLd3KGUeFNNG-4" target="b9ujsR0PrLd3KGUeFNNG-114" edge="1">
          <mxGeometry relative="1" as="geometry" />
        </mxCell>
        <mxCell id="b9ujsR0PrLd3KGUeFNNG-4" value="Cliente" style="rounded=0;whiteSpace=wrap;html=1;" parent="1" vertex="1">
          <mxGeometry x="900" y="1392" width="120" height="60" as="geometry" />
        </mxCell>
        <mxCell id="b9ujsR0PrLd3KGUeFNNG-38" style="edgeStyle=orthogonalEdgeStyle;rounded=0;orthogonalLoop=1;jettySize=auto;html=1;exitX=0.5;exitY=1;exitDx=0;exitDy=0;entryX=0;entryY=0.5;entryDx=0;entryDy=0;" parent="1" source="b9ujsR0PrLd3KGUeFNNG-5" target="b9ujsR0PrLd3KGUeFNNG-28" edge="1">
          <mxGeometry relative="1" as="geometry" />
        </mxCell>
        <mxCell id="b9ujsR0PrLd3KGUeFNNG-39" style="edgeStyle=orthogonalEdgeStyle;rounded=0;orthogonalLoop=1;jettySize=auto;html=1;exitX=0.5;exitY=1;exitDx=0;exitDy=0;entryX=0;entryY=0.5;entryDx=0;entryDy=0;" parent="1" source="b9ujsR0PrLd3KGUeFNNG-5" target="b9ujsR0PrLd3KGUeFNNG-36" edge="1">
          <mxGeometry relative="1" as="geometry" />
        </mxCell>
        <mxCell id="b9ujsR0PrLd3KGUeFNNG-40" style="edgeStyle=orthogonalEdgeStyle;rounded=0;orthogonalLoop=1;jettySize=auto;html=1;exitX=0.5;exitY=1;exitDx=0;exitDy=0;entryX=0;entryY=0.5;entryDx=0;entryDy=0;" parent="1" source="b9ujsR0PrLd3KGUeFNNG-5" target="b9ujsR0PrLd3KGUeFNNG-30" edge="1">
          <mxGeometry relative="1" as="geometry" />
        </mxCell>
        <mxCell id="b9ujsR0PrLd3KGUeFNNG-43" style="edgeStyle=orthogonalEdgeStyle;rounded=0;orthogonalLoop=1;jettySize=auto;html=1;exitX=0.5;exitY=1;exitDx=0;exitDy=0;entryX=0;entryY=0.5;entryDx=0;entryDy=0;" parent="1" source="b9ujsR0PrLd3KGUeFNNG-5" target="b9ujsR0PrLd3KGUeFNNG-32" edge="1">
          <mxGeometry relative="1" as="geometry" />
        </mxCell>
        <mxCell id="b9ujsR0PrLd3KGUeFNNG-44" style="edgeStyle=orthogonalEdgeStyle;rounded=0;orthogonalLoop=1;jettySize=auto;html=1;exitX=0.5;exitY=1;exitDx=0;exitDy=0;entryX=0;entryY=0.5;entryDx=0;entryDy=0;" parent="1" source="b9ujsR0PrLd3KGUeFNNG-5" target="b9ujsR0PrLd3KGUeFNNG-34" edge="1">
          <mxGeometry relative="1" as="geometry" />
        </mxCell>
        <mxCell id="b9ujsR0PrLd3KGUeFNNG-90" style="edgeStyle=orthogonalEdgeStyle;rounded=0;orthogonalLoop=1;jettySize=auto;html=1;exitX=0.5;exitY=0;exitDx=0;exitDy=0;entryX=0.5;entryY=1;entryDx=0;entryDy=0;endArrow=classic;endFill=1;" parent="1" source="b9ujsR0PrLd3KGUeFNNG-5" target="b9ujsR0PrLd3KGUeFNNG-89" edge="1">
          <mxGeometry relative="1" as="geometry" />
        </mxCell>
        <mxCell id="b9ujsR0PrLd3KGUeFNNG-5" value="Dipendente" style="rounded=0;whiteSpace=wrap;html=1;" parent="1" vertex="1">
          <mxGeometry x="30" y="1370" width="120" height="60" as="geometry" />
        </mxCell>
        <mxCell id="b9ujsR0PrLd3KGUeFNNG-63" style="edgeStyle=orthogonalEdgeStyle;rounded=0;orthogonalLoop=1;jettySize=auto;html=1;exitX=0.5;exitY=1;exitDx=0;exitDy=0;entryX=0;entryY=0.5;entryDx=0;entryDy=0;" parent="1" source="b9ujsR0PrLd3KGUeFNNG-6" target="b9ujsR0PrLd3KGUeFNNG-55" edge="1">
          <mxGeometry relative="1" as="geometry" />
        </mxCell>
        <mxCell id="b9ujsR0PrLd3KGUeFNNG-64" style="edgeStyle=orthogonalEdgeStyle;rounded=0;orthogonalLoop=1;jettySize=auto;html=1;exitX=0.5;exitY=1;exitDx=0;exitDy=0;entryX=0;entryY=0.5;entryDx=0;entryDy=0;" parent="1" source="b9ujsR0PrLd3KGUeFNNG-6" target="b9ujsR0PrLd3KGUeFNNG-57" edge="1">
          <mxGeometry relative="1" as="geometry" />
        </mxCell>
        <mxCell id="b9ujsR0PrLd3KGUeFNNG-65" style="edgeStyle=orthogonalEdgeStyle;rounded=0;orthogonalLoop=1;jettySize=auto;html=1;exitX=0.5;exitY=1;exitDx=0;exitDy=0;entryX=0;entryY=0.5;entryDx=0;entryDy=0;" parent="1" source="b9ujsR0PrLd3KGUeFNNG-6" target="b9ujsR0PrLd3KGUeFNNG-59" edge="1">
          <mxGeometry relative="1" as="geometry" />
        </mxCell>
        <mxCell id="b9ujsR0PrLd3KGUeFNNG-95" style="edgeStyle=orthogonalEdgeStyle;rounded=0;orthogonalLoop=1;jettySize=auto;html=1;exitX=1;exitY=0.5;exitDx=0;exitDy=0;entryX=0;entryY=0.5;entryDx=0;entryDy=0;endArrow=classic;endFill=1;" parent="1" source="b9ujsR0PrLd3KGUeFNNG-6" target="b9ujsR0PrLd3KGUeFNNG-92" edge="1">
          <mxGeometry relative="1" as="geometry" />
        </mxCell>
        <mxCell id="b9ujsR0PrLd3KGUeFNNG-6" value="Facility" style="rounded=0;whiteSpace=wrap;html=1;" parent="1" vertex="1">
          <mxGeometry x="-400" y="1020" width="120" height="60" as="geometry" />
        </mxCell>
        <mxCell id="b9ujsR0PrLd3KGUeFNNG-7" value="" style="ellipse;whiteSpace=wrap;html=1;aspect=fixed;" parent="1" vertex="1">
          <mxGeometry x="170" y="1100" width="30" height="30" as="geometry" />
        </mxCell>
        <mxCell id="b9ujsR0PrLd3KGUeFNNG-8" value="Nome" style="text;html=1;align=left;verticalAlign=middle;whiteSpace=wrap;rounded=0;" parent="1" vertex="1">
          <mxGeometry x="200" y="1100" width="80" height="30" as="geometry" />
        </mxCell>
        <mxCell id="b9ujsR0PrLd3KGUeFNNG-9" value="" style="ellipse;whiteSpace=wrap;html=1;aspect=fixed;" parent="1" vertex="1">
          <mxGeometry x="170" y="1137" width="30" height="30" as="geometry" />
        </mxCell>
        <mxCell id="b9ujsR0PrLd3KGUeFNNG-10" value="Indirizzo" style="text;html=1;align=left;verticalAlign=middle;whiteSpace=wrap;rounded=0;" parent="1" vertex="1">
          <mxGeometry x="200" y="1137" width="80" height="30" as="geometry" />
        </mxCell>
        <mxCell id="b9ujsR0PrLd3KGUeFNNG-11" value="" style="ellipse;whiteSpace=wrap;html=1;aspect=fixed;fillColor=#FFFFFF;" parent="1" vertex="1">
          <mxGeometry x="170" y="1175" width="30" height="30" as="geometry" />
        </mxCell>
        <mxCell id="b9ujsR0PrLd3KGUeFNNG-12" value="Valutazione" style="text;html=1;align=left;verticalAlign=middle;whiteSpace=wrap;rounded=0;" parent="1" vertex="1">
          <mxGeometry x="200" y="1175" width="80" height="30" as="geometry" />
        </mxCell>
        <mxCell id="b9ujsR0PrLd3KGUeFNNG-16" value="" style="ellipse;whiteSpace=wrap;html=1;aspect=fixed;fillColor=#000000;" parent="1" vertex="1">
          <mxGeometry x="546" y="1099.5" width="30" height="30" as="geometry" />
        </mxCell>
        <mxCell id="b9ujsR0PrLd3KGUeFNNG-17" value="Numero Unico" style="text;html=1;align=left;verticalAlign=middle;whiteSpace=wrap;rounded=0;" parent="1" vertex="1">
          <mxGeometry x="576" y="1099.5" width="80" height="30" as="geometry" />
        </mxCell>
        <mxCell id="b9ujsR0PrLd3KGUeFNNG-18" value="" style="ellipse;whiteSpace=wrap;html=1;aspect=fixed;" parent="1" vertex="1">
          <mxGeometry x="546" y="1136.5" width="30" height="30" as="geometry" />
        </mxCell>
        <mxCell id="b9ujsR0PrLd3KGUeFNNG-19" value="Tipo" style="text;html=1;align=left;verticalAlign=middle;whiteSpace=wrap;rounded=0;" parent="1" vertex="1">
          <mxGeometry x="576" y="1136.5" width="80" height="30" as="geometry" />
        </mxCell>
        <mxCell id="b9ujsR0PrLd3KGUeFNNG-20" value="" style="ellipse;whiteSpace=wrap;html=1;aspect=fixed;" parent="1" vertex="1">
          <mxGeometry x="546" y="1174.5" width="30" height="30" as="geometry" />
        </mxCell>
        <mxCell id="b9ujsR0PrLd3KGUeFNNG-21" value="Capacita Max" style="text;html=1;align=left;verticalAlign=middle;whiteSpace=wrap;rounded=0;" parent="1" vertex="1">
          <mxGeometry x="576" y="1174.5" width="80" height="30" as="geometry" />
        </mxCell>
        <mxCell id="b9ujsR0PrLd3KGUeFNNG-22" value="" style="ellipse;whiteSpace=wrap;html=1;aspect=fixed;" parent="1" vertex="1">
          <mxGeometry x="546" y="1210" width="30" height="30" as="geometry" />
        </mxCell>
        <mxCell id="b9ujsR0PrLd3KGUeFNNG-23" value="Tariffa" style="text;html=1;align=left;verticalAlign=middle;whiteSpace=wrap;rounded=0;" parent="1" vertex="1">
          <mxGeometry x="576" y="1210" width="80" height="30" as="geometry" />
        </mxCell>
        <mxCell id="b9ujsR0PrLd3KGUeFNNG-28" value="" style="ellipse;whiteSpace=wrap;html=1;aspect=fixed;" parent="1" vertex="1">
          <mxGeometry x="160" y="1450" width="30" height="30" as="geometry" />
        </mxCell>
        <mxCell id="b9ujsR0PrLd3KGUeFNNG-29" value="Nome" style="text;html=1;align=left;verticalAlign=middle;whiteSpace=wrap;rounded=0;" parent="1" vertex="1">
          <mxGeometry x="190" y="1450" width="80" height="30" as="geometry" />
        </mxCell>
        <mxCell id="b9ujsR0PrLd3KGUeFNNG-30" value="" style="ellipse;whiteSpace=wrap;html=1;aspect=fixed;fillColor=#000000;" parent="1" vertex="1">
          <mxGeometry x="160" y="1527" width="30" height="30" as="geometry" />
        </mxCell>
        <mxCell id="b9ujsR0PrLd3KGUeFNNG-31" value="Cod.Unico" style="text;html=1;align=left;verticalAlign=middle;whiteSpace=wrap;rounded=0;" parent="1" vertex="1">
          <mxGeometry x="190" y="1527" width="80" height="30" as="geometry" />
        </mxCell>
        <mxCell id="b9ujsR0PrLd3KGUeFNNG-32" value="" style="ellipse;whiteSpace=wrap;html=1;aspect=fixed;" parent="1" vertex="1">
          <mxGeometry x="160" y="1565" width="30" height="30" as="geometry" />
        </mxCell>
        <mxCell id="b9ujsR0PrLd3KGUeFNNG-33" value="Telefono" style="text;html=1;align=left;verticalAlign=middle;whiteSpace=wrap;rounded=0;" parent="1" vertex="1">
          <mxGeometry x="190" y="1565" width="80" height="30" as="geometry" />
        </mxCell>
        <mxCell id="b9ujsR0PrLd3KGUeFNNG-34" value="" style="ellipse;whiteSpace=wrap;html=1;aspect=fixed;" parent="1" vertex="1">
          <mxGeometry x="160" y="1600" width="30" height="30" as="geometry" />
        </mxCell>
        <mxCell id="b9ujsR0PrLd3KGUeFNNG-35" value="Posizione" style="text;html=1;align=left;verticalAlign=middle;whiteSpace=wrap;rounded=0;" parent="1" vertex="1">
          <mxGeometry x="190" y="1600" width="80" height="30" as="geometry" />
        </mxCell>
        <mxCell id="b9ujsR0PrLd3KGUeFNNG-36" value="" style="ellipse;whiteSpace=wrap;html=1;aspect=fixed;" parent="1" vertex="1">
          <mxGeometry x="160" y="1486.5" width="30" height="30" as="geometry" />
        </mxCell>
        <mxCell id="b9ujsR0PrLd3KGUeFNNG-37" value="Cognome" style="text;html=1;align=left;verticalAlign=middle;whiteSpace=wrap;rounded=0;" parent="1" vertex="1">
          <mxGeometry x="190" y="1486.5" width="80" height="30" as="geometry" />
        </mxCell>
        <mxCell id="b9ujsR0PrLd3KGUeFNNG-45" value="" style="ellipse;whiteSpace=wrap;html=1;aspect=fixed;" parent="1" vertex="1">
          <mxGeometry x="1020" y="1472" width="30" height="30" as="geometry" />
        </mxCell>
        <mxCell id="b9ujsR0PrLd3KGUeFNNG-46" value="Nome" style="text;html=1;align=left;verticalAlign=middle;whiteSpace=wrap;rounded=0;" parent="1" vertex="1">
          <mxGeometry x="1050" y="1472" width="80" height="30" as="geometry" />
        </mxCell>
        <mxCell id="b9ujsR0PrLd3KGUeFNNG-47" value="" style="ellipse;whiteSpace=wrap;html=1;aspect=fixed;" parent="1" vertex="1">
          <mxGeometry x="1020" y="1508.5" width="30" height="30" as="geometry" />
        </mxCell>
        <mxCell id="b9ujsR0PrLd3KGUeFNNG-48" value="Cognome" style="text;html=1;align=left;verticalAlign=middle;whiteSpace=wrap;rounded=0;" parent="1" vertex="1">
          <mxGeometry x="1050" y="1508.5" width="80" height="30" as="geometry" />
        </mxCell>
        <mxCell id="b9ujsR0PrLd3KGUeFNNG-50" value="" style="ellipse;whiteSpace=wrap;html=1;aspect=fixed;" parent="1" vertex="1">
          <mxGeometry x="1020" y="1545" width="30" height="30" as="geometry" />
        </mxCell>
        <mxCell id="b9ujsR0PrLd3KGUeFNNG-51" value="Telefono" style="text;html=1;align=left;verticalAlign=middle;whiteSpace=wrap;rounded=0;" parent="1" vertex="1">
          <mxGeometry x="1050" y="1545" width="80" height="30" as="geometry" />
        </mxCell>
        <mxCell id="b9ujsR0PrLd3KGUeFNNG-55" value="" style="ellipse;whiteSpace=wrap;html=1;aspect=fixed;" parent="1" vertex="1">
          <mxGeometry x="-270" y="1100" width="30" height="30" as="geometry" />
        </mxCell>
        <mxCell id="b9ujsR0PrLd3KGUeFNNG-56" value="Nome" style="text;html=1;align=left;verticalAlign=middle;whiteSpace=wrap;rounded=0;" parent="1" vertex="1">
          <mxGeometry x="-240" y="1100" width="80" height="30" as="geometry" />
        </mxCell>
        <mxCell id="b9ujsR0PrLd3KGUeFNNG-57" value="" style="ellipse;whiteSpace=wrap;html=1;aspect=fixed;" parent="1" vertex="1">
          <mxGeometry x="-270" y="1136.5" width="30" height="30" as="geometry" />
        </mxCell>
        <mxCell id="b9ujsR0PrLd3KGUeFNNG-58" value="Descrizione" style="text;html=1;align=left;verticalAlign=middle;whiteSpace=wrap;rounded=0;" parent="1" vertex="1">
          <mxGeometry x="-240" y="1136.5" width="80" height="30" as="geometry" />
        </mxCell>
        <mxCell id="b9ujsR0PrLd3KGUeFNNG-59" value="" style="ellipse;whiteSpace=wrap;html=1;aspect=fixed;" parent="1" vertex="1">
          <mxGeometry x="-270" y="1173" width="30" height="30" as="geometry" />
        </mxCell>
        <mxCell id="b9ujsR0PrLd3KGUeFNNG-60" value="Orario" style="text;html=1;align=left;verticalAlign=middle;whiteSpace=wrap;rounded=0;" parent="1" vertex="1">
          <mxGeometry x="-240" y="1173" width="90" height="30" as="geometry" />
        </mxCell>
        <mxCell id="b9ujsR0PrLd3KGUeFNNG-74" style="edgeStyle=orthogonalEdgeStyle;rounded=0;orthogonalLoop=1;jettySize=auto;html=1;exitX=0.5;exitY=1;exitDx=0;exitDy=0;entryX=0;entryY=0.5;entryDx=0;entryDy=0;" parent="1" source="b9ujsR0PrLd3KGUeFNNG-67" target="b9ujsR0PrLd3KGUeFNNG-68" edge="1">
          <mxGeometry relative="1" as="geometry">
            <Array as="points">
              <mxPoint x="530" y="1452" />
              <mxPoint x="530" y="1479" />
            </Array>
          </mxGeometry>
        </mxCell>
        <mxCell id="b9ujsR0PrLd3KGUeFNNG-76" style="edgeStyle=orthogonalEdgeStyle;rounded=0;orthogonalLoop=1;jettySize=auto;html=1;exitX=0.5;exitY=1;exitDx=0;exitDy=0;entryX=0;entryY=0.5;entryDx=0;entryDy=0;" parent="1" source="b9ujsR0PrLd3KGUeFNNG-67" target="b9ujsR0PrLd3KGUeFNNG-70" edge="1">
          <mxGeometry relative="1" as="geometry">
            <Array as="points">
              <mxPoint x="530" y="1452" />
              <mxPoint x="530" y="1516" />
            </Array>
          </mxGeometry>
        </mxCell>
        <mxCell id="b9ujsR0PrLd3KGUeFNNG-107" style="edgeStyle=orthogonalEdgeStyle;rounded=0;orthogonalLoop=1;jettySize=auto;html=1;exitX=0.5;exitY=0;exitDx=0;exitDy=0;entryX=0.5;entryY=1;entryDx=0;entryDy=0;" parent="1" source="b9ujsR0PrLd3KGUeFNNG-67" target="b9ujsR0PrLd3KGUeFNNG-82" edge="1">
          <mxGeometry relative="1" as="geometry" />
        </mxCell>
        <mxCell id="b9ujsR0PrLd3KGUeFNNG-108" style="edgeStyle=orthogonalEdgeStyle;rounded=0;orthogonalLoop=1;jettySize=auto;html=1;exitX=1;exitY=0.5;exitDx=0;exitDy=0;entryX=0;entryY=0.5;entryDx=0;entryDy=0;" parent="1" source="b9ujsR0PrLd3KGUeFNNG-67" target="b9ujsR0PrLd3KGUeFNNG-81" edge="1">
          <mxGeometry relative="1" as="geometry" />
        </mxCell>
        <mxCell id="b9ujsR0PrLd3KGUeFNNG-67" value="Prenotazione" style="rounded=0;whiteSpace=wrap;html=1;" parent="1" vertex="1">
          <mxGeometry x="430" y="1392" width="120" height="60" as="geometry" />
        </mxCell>
        <mxCell id="b9ujsR0PrLd3KGUeFNNG-68" value="" style="ellipse;whiteSpace=wrap;html=1;aspect=fixed;" parent="1" vertex="1">
          <mxGeometry x="566" y="1464" width="30" height="30" as="geometry" />
        </mxCell>
        <mxCell id="b9ujsR0PrLd3KGUeFNNG-69" value="Check-in" style="text;html=1;align=left;verticalAlign=middle;whiteSpace=wrap;rounded=0;" parent="1" vertex="1">
          <mxGeometry x="596" y="1464" width="80" height="30" as="geometry" />
        </mxCell>
        <mxCell id="b9ujsR0PrLd3KGUeFNNG-70" value="" style="ellipse;whiteSpace=wrap;html=1;aspect=fixed;" parent="1" vertex="1">
          <mxGeometry x="566" y="1500.5" width="30" height="30" as="geometry" />
        </mxCell>
        <mxCell id="b9ujsR0PrLd3KGUeFNNG-71" value="Check-out" style="text;html=1;align=left;verticalAlign=middle;whiteSpace=wrap;rounded=0;" parent="1" vertex="1">
          <mxGeometry x="596" y="1500.5" width="80" height="30" as="geometry" />
        </mxCell>
        <mxCell id="b9ujsR0PrLd3KGUeFNNG-80" value="Possiede" style="rhombus;whiteSpace=wrap;html=1;" parent="1" vertex="1">
          <mxGeometry x="260" y="1015" width="70" height="70" as="geometry" />
        </mxCell>
        <mxCell id="b9ujsR0PrLd3KGUeFNNG-81" value="Effettua" style="rhombus;whiteSpace=wrap;html=1;" parent="1" vertex="1">
          <mxGeometry x="720" y="1387" width="70" height="70" as="geometry" />
        </mxCell>
        <mxCell id="b9ujsR0PrLd3KGUeFNNG-82" value="Riceve" style="rhombus;whiteSpace=wrap;html=1;" parent="1" vertex="1">
          <mxGeometry x="455" y="1230" width="70" height="70" as="geometry" />
        </mxCell>
        <mxCell id="b9ujsR0PrLd3KGUeFNNG-86" value="" style="endArrow=none;html=1;rounded=0;" parent="1" edge="1">
          <mxGeometry width="50" height="50" relative="1" as="geometry">
            <mxPoint x="877" y="1442" as="sourcePoint" />
            <mxPoint x="877" y="1402" as="targetPoint" />
          </mxGeometry>
        </mxCell>
        <mxCell id="b9ujsR0PrLd3KGUeFNNG-89" value="Lavora" style="rhombus;whiteSpace=wrap;html=1;" parent="1" vertex="1">
          <mxGeometry x="55" y="1190" width="70" height="70" as="geometry" />
        </mxCell>
        <mxCell id="b9ujsR0PrLd3KGUeFNNG-92" value="Contiene" style="rhombus;whiteSpace=wrap;html=1;" parent="1" vertex="1">
          <mxGeometry x="-160" y="1015" width="70" height="70" as="geometry" />
        </mxCell>
        <mxCell id="b9ujsR0PrLd3KGUeFNNG-94" value="" style="endArrow=none;html=1;rounded=0;" parent="1" edge="1">
          <mxGeometry width="50" height="50" relative="1" as="geometry">
            <mxPoint y="1070" as="sourcePoint" />
            <mxPoint y="1030" as="targetPoint" />
          </mxGeometry>
        </mxCell>
        <mxCell id="b9ujsR0PrLd3KGUeFNNG-97" value="" style="endArrow=none;html=1;rounded=0;" parent="1" edge="1">
          <mxGeometry width="50" height="50" relative="1" as="geometry">
            <mxPoint x="184.41" y="1070" as="sourcePoint" />
            <mxPoint x="184.41" y="1030" as="targetPoint" />
          </mxGeometry>
        </mxCell>
        <mxCell id="b9ujsR0PrLd3KGUeFNNG-103" value="" style="endArrow=none;html=1;rounded=0;" parent="1" edge="1">
          <mxGeometry width="50" height="50" relative="1" as="geometry">
            <mxPoint x="70" y="1135.32" as="sourcePoint" />
            <mxPoint x="110" y="1135.32" as="targetPoint" />
          </mxGeometry>
        </mxCell>
        <mxCell id="b9ujsR0PrLd3KGUeFNNG-106" value="" style="endArrow=none;html=1;rounded=0;" parent="1" edge="1">
          <mxGeometry width="50" height="50" relative="1" as="geometry">
            <mxPoint x="480" y="1128" as="sourcePoint" />
            <mxPoint x="500" y="1128.32" as="targetPoint" />
          </mxGeometry>
        </mxCell>
        <mxCell id="b9ujsR0PrLd3KGUeFNNG-114" value="" style="ellipse;whiteSpace=wrap;html=1;aspect=fixed;" parent="1" vertex="1">
          <mxGeometry x="1020" y="1585" width="30" height="30" as="geometry" />
        </mxCell>
        <mxCell id="b9ujsR0PrLd3KGUeFNNG-115" value="Email" style="text;html=1;align=left;verticalAlign=middle;whiteSpace=wrap;rounded=0;" parent="1" vertex="1">
          <mxGeometry x="1050" y="1585" width="80" height="30" as="geometry" />
        </mxCell>
      </root>
    </mxGraphModel>
  </diagram>
</mxfile>
